<?xml version="1.0" encoding="utf-8"?>
<svg id="master-artboard" viewBox="0 0 500 500" version="1.1" xmlns="http://www.w3.org/2000/svg" x="0px" y="0px" style="enable-background:new 0 0 1400 980;" width="500px" height="500px"><rect id="ee-background" x="0" y="0" width="500" height="500" style="fill: white; fill-opacity: 0; pointer-events: none;"/><g transform="matrix(2.1659979820251465, 0.555654764175415, -0.555654764175415, 2.1659979820251465, -758.106998234131, -215.75940477962226)"><g transform="matrix(1, 0, 0, 1, 0, 7.105427357601002e-15)">
		<g>
			<path class="st3" d="M481.2,137.2c0,0-2.5,1.1-3.3,0.6c-0.8-0.5-1.1-0.1-2.5,0c-1.4,0.1-3.1,0.3-3-0.6c0-0.9-0.9-2.9-1.1-1.9&#10;&#9;&#9;&#9;&#9;c-0.2,1-1.2,3.9,0.8,4.7c2,0.8,4.1,0.3,4.1,1.9c0.1,1.7-0.6,4.7-0.8,3.3c-0.2-1.4-0.7-3.9-0.8-2.8c-0.1,1.1-1.6,2.9-1.9,1.7&#10;&#9;&#9;&#9;&#9;c-0.4-1.2-2.3-2.7-3.6-1.9c-1.3,0.8-3.5,1.7-4.4,3.6c-0.9,1.9-1.7,0.2-1.9,0c-0.7,1-1.7,1.3-1.9,2.2c-0.7-0.3,0.1-1.9,0.8-3&#10;&#9;&#9;&#9;&#9;c-1.6-0.5-2.7,0.6-3,1.1c-0.3,0.5-3.2,3.3-3.9,2.5c-0.6-0.8-2.4-0.6-2.2,2.2c-1-0.5-1-3.8,0.3-5c1.2-1.2,1.3-2.6,0.8-2.2&#10;&#9;&#9;&#9;&#9;c-0.5,0.4-3.1-1-1.7-1.9c1.5-1,1.7-0.9,2.5-1.1c0.8-0.2,2.3,0.7,3.9-1.1c1.6-1.8,1.8-3.4,1.9-4.1c-1.2-1.9-5.5-10.8-6.1-12.4&#10;&#9;&#9;&#9;&#9;c-0.6-1.7-1.4-1.9-1.4-1.9s-1,2.3-1.9,0.3c-1-2-4.6-10.3-5.3-11.6c-0.7-1.3-3.1-2.9-3.6-4.4c-0.5-1.6-2.9-6.5-3.3-9.1&#10;&#9;&#9;&#9;&#9;c-0.5-2.6-1.3-0.5-1.9-4.4c-0.6-4-0.9-8.7,0.3-10.2c1.2-1.6,0.1-1.7,1.1-3c1-1.4,0.7-0.9,2.8-2.2c2.1-1.3,4.1-4.3,3.9-5.5&#10;&#9;&#9;&#9;&#9;c-0.3-1.2-0.7-1.4-0.8-1.1c-1.1,0.6-2,1-1.1-0.8c0.9-1.8,1.6-4.5,0.6-3.9c-1.1,0.6-1.7,0.6-1.1-0.8c0.6-1.4,2.1-1.9,1.4-3.3&#10;&#9;&#9;&#9;&#9;c-0.7-1.4-1.7-3.5-1.4-4.7c0.3-1.2,0.1-6,5.3-8.6c5.2-2.6,8.5-2.3,10.8-1.9c2.3,0.3,5.5,1.8,5.3,4.1c1.9,1.4,4,3,2.2,9.7&#10;&#9;&#9;&#9;&#9;c-0.3-1-1.2-3.1-1.7-2.8c0.2,1.5,1.3,4.7,3,6.9c1.7,2.3,2.7,5,3,6.9c0.4,1.9,3.7,3.4,4.7,4.1c1,0.7,9.3,5.4,10.5,7.2&#10;&#9;&#9;&#9;&#9;c1.2,1.8,5.2,6.7,6.4,7.7c1.2,1.1,2.3,3.5,2.8,5.8c0.5,2.4,1.7,4.9,3.3,6.9c1.6,2,4.9,7.1,2.8,11.9c0.4,4.3,2.2,9.5,3,11.1&#10;&#9;&#9;&#9;&#9;c0.9,1.6,1.8,4.3,1.9,5.8c0.2,1.5,1.7,6.5,1.4,8.3c2.4,4.3,5.1,8.3,5.8,10.8c0.7,2.5,1.9,3.8-0.3,5c-2.2,1.2-4.3-0.6-5,0.6&#10;&#9;&#9;&#9;&#9;c-0.7,1.1-2.2-0.5-2.5-0.8c-0.3-0.3-0.6-0.3-1.1,0.3c-0.5,0.6-2.1,1-2.5-0.3c-0.4-1.2-3.5-2.6-4.4-2.5c-0.9,0.1-1.5-0.3-2.5-2.5&#10;&#9;&#9;&#9;&#9;c-1-2.2-5.2-5.5-6.1-8.3c-0.9-2.8-1.7-3-2.2-3.9c-0.6-0.9-1.3-2.4-0.3,0.8c1.1,3.3,1.9,4.1,0.3,4.4c-1.7,0.3-2.4,0.5-3.3-1.9&#10;&#9;&#9;&#9;&#9;C481.9,138.3,481.2,137.2,481.2,137.2L481.2,137.2z" style="fill-rule: evenodd; clip-rule: evenodd; fill: rgb(51, 51, 51); opacity: 1;"/>
		</g>
		<g>
			<path class="st4" d="M467.6,133.9c0,0-1.3-1.2-1.7-1.7c-0.3-0.4-0.5-0.2-0.8,0.3c-0.3,0.5-1.2,0.5-1.1,0.8&#10;&#9;&#9;&#9;&#9;c0.5,0.6,2.2,1.2,1.7,2.2c-0.5,1.1-0.7,2.9,0.3,2.5c1-0.4,1.5-1.1,1.7-2.2C467.7,134.7,467.6,133.9,467.6,133.9L467.6,133.9z" style="fill-rule: evenodd; clip-rule: evenodd; fill: rgb(51, 51, 51); opacity: 1;"/>
		</g>
		<g>
			<path d="M 455.1 53.200001 A 1.1 1.1 0 0 1 454 54.300001 A 1.1 1.1 0 0 1 452.9 53.200001 A 1.1 1.1 0 0 1 454 52.100001 A 1.1 1.1 0 0 1 455.1 53.200001 Z" class="st4" style="fill-rule: evenodd; clip-rule: evenodd; fill: rgb(51, 51, 51); opacity: 1;"/>
		</g>
	</g></g><g transform="matrix(0.11465786397457123, 0, 0, 0.11465786397457123, 103.02283117260731, 123.28586041813169)"><g transform="matrix(1, 0, 0, 1, -51.91090393066406, -5.767877578735323)">
		<g>
			<path class="st6" d="M1930.4,441.9c6.7,74.2-30.5,112-80.2,116.4c-49.7,4.5-93-26.1-99.7-100.3c-9.1-101.5,66.3-184.1,74.1-184.8&#10;&#9;&#9;&#9;&#9;C1832.3,272.6,1921.2,340.4,1930.4,441.9z" style="fill: rgb(51, 51, 51); opacity: 1;"/>
			<path class="st7" d="M1930.4,441.9c6.7,74.2-30.5,112-80.2,116.4c-49.7,4.5-73.9-63.6-46.7-131.6&#10;&#9;&#9;&#9;&#9;c40.2-100.3,29.7-129.4,21.1-153.4C1832.3,272.6,1921.2,340.4,1930.4,441.9z" style="fill: rgb(51, 51, 51); opacity: 1;"/>
		</g>
		<g>
			<path class="st6" d="M2101.1,717.2c-52.8,52.5-48.6,105.4-13.5,140.8c35.2,35.4,88,39.9,140.8-12.6&#10;&#9;&#9;&#9;&#9;c72.3-71.8,67.6-183.6,62.1-189.1C2285.1,650.6,2173.4,645.3,2101.1,717.2z" style="fill: rgb(51, 51, 51); opacity: 1;"/>
			<path class="st7" d="M2101.1,717.2c-52.8,52.5-48.6,105.4-13.5,140.8c35.2,35.4,97.5-1.1,120.4-70.7&#10;&#9;&#9;&#9;&#9;c33.8-102.7,60.5-118.2,82.6-131C2285.1,650.6,2173.4,645.3,2101.1,717.2z" style="fill: rgb(51, 51, 51); opacity: 1;"/>
		</g>
		<g>
			<path class="st6" d="M1321.7,670.2c50.9,54.4,103.8,51.8,140.3,17.7c36.4-34.1,42.5-86.8-8.3-141.2&#10;&#9;&#9;&#9;&#9;c-69.6-74.4-181.5-73.2-187.2-67.9C1260.8,484.2,1252.1,595.7,1321.7,670.2z" style="fill: rgb(51, 51, 51); opacity: 1;"/>
			<path class="st7" d="M1321.7,670.2c50.9,54.4,103.8,51.8,140.3,17.7c36.4-34.1,1.8-97.5-67-122.5&#10;&#9;&#9;&#9;&#9;c-101.6-36.9-116.3-64.1-128.5-86.5C1260.8,484.2,1252.1,595.7,1321.7,670.2z" style="fill: rgb(51, 51, 51); opacity: 1;"/>
		</g>
		<path class="st8" d="M1491.1,745.3c-30.5-11.4-49.6,2.5-36.4,19c-5.7,12.4-26.7,5.7-27-10.6c-0.3-20.8,29.7-29.7,51.1-24.7&#10;&#9;&#9;&#9;L1491.1,745.3z" style="fill: rgb(51, 51, 51); opacity: 1;"/>
		<path class="st8" d="M2266.6,805.7c0,0-8.9,25.2-25.3,37c-50,36.1-100.4,6.2-148.2,14.1c28.7-39.3,89.7-87.8,115.1-82.4&#10;&#9;&#9;&#9;c-32.2-22.7-65.5-1.3-84.3,17.9c-29.4,30-27,39.2-40.9,51.9c16-47.9-9.8-97.7,28-152.2c-77.5,22.2-71.4,94.3-65.9,154.7&#10;&#9;&#9;&#9;c-4.1-12.2-12.4-21.6-24.2-21.1c-16.3,0.8-22.3,22-9.7,27.3c16-13.6,34.7,3.8,19.7,36.9c-17.3,29.9-43,49.1-70.1,69.3&#10;&#9;&#9;&#9;c-32.2,24-65.4,48.7-85.7,92.5c-1.9,4.1-3.7,8.4-5.3,12.8c-26.7-154.7-43.2-302.7,4-446.1l0,0c11.8-30.3,34.9-35.3,38.4-14.5&#10;&#9;&#9;&#9;c13,4,22.1-16.1,10.1-27.2c-8.7-8-21.1-6.1-32.1,0.5c43.1-42.7,94.1-94,49.1-160.8c-6,64.7-55.8,86.7-75.3,131.7&#10;&#9;&#9;&#9;c-1.8-30.2,10.1-55,6.8-98.4c-2-26.7-25.5-50.9-58.9-32.7c22.9,12.2,38.4,88.6,35.1,137.1c-31.5-36.8-89.4-46.3-104.4-106.1&#10;&#9;&#9;&#9;c-4.9-19.6,4.5-44.6,4.5-44.6s-2.5-3.8-11.8-5.6c-39.3-7.5-62.5,61.4-11.5,114.9c35.7,37.5,80.9,48.5,109.4,67.1&#10;&#9;&#9;&#9;c-17.2,0.8-31,11.1-35.4,23c-6,16.2,5.1,30.9,16.7,23.7c-8.5-28.2,37.5-59.3,26.1-11.6c-42.8,135.6-32.4,272.7-9.7,414.8&#10;&#9;&#9;&#9;c-70.6-145.2-178.2-249.8-320-311.5l1.1,0.4c-44.9-23.6,9.6-37.5,25.1-12.2c13.1-3.9,9.5-21.9-6.5-28.2&#10;&#9;&#9;&#9;c-12.5-4.9-30.7-0.8-42.7,13.3c2.1-34,20.9-75.7,18.2-128.5c-3.2-62.5-51.9-92-81.4-79.1c-13,5.7-9,23.6-9,23.6&#10;&#9;&#9;&#9;s21.1,1.4,36.3,26.4c32.1,53.1,2.6,101.2,9.7,149.3c-32.3-23.9-58.9-66.1-29.8-85.5c-57-11.9-66.2,30-47.7,49.3&#10;&#9;&#9;&#9;c28.7,29.8,45.3,29.6,61.3,44c-46.5-15.4-96.1,7-148.2-31.5c21.7,85.7,106.5,72.8,169.8,69.6c1.4,4.6,4.8,8.5,9.6,10.3&#10;&#9;&#9;&#9;c227.4,89.5,337,276.8,385.4,474.4c1.7,11.3,3.9,23,6.4,35.3c0.4,1.8,1,3.4,1.9,4.9c8.8,52.9,16.4,106.7,21,161.4&#10;&#9;&#9;&#9;c-7.1-10.2-15.1-19.4-24.1-27.8c-29.5-27.3-64.6-42.1-101.9-57.7c-29-12.2-58.8-24.7-86.1-43.8c-12.3-16.4,9.8-79.4-59.2-117.5&#10;&#9;&#9;&#9;c-47.3-26.1-128.5-35.9-158.9-80.8c-12.4,105.4,32,169.7,84.4,196.9c52.4,27.2,88.5,10.2,124.7,35.2l0.1-0.3&#10;&#9;&#9;&#9;c27,17.3,55.1,29.1,82.4,40.6c71.2,29.9,127.5,53.6,143.3,161.4c-0.1,61.8-5.4,116.7-15,165.5c-2,8.7-4.1,17.4-6.2,26.3&#10;&#9;&#9;&#9;c-0.3,1.2-0.4,2.3-0.4,3.5c-1.5,6-3,11.8-4.6,17.6c-0.8-22.1-4.1-44.2-10-65.9c-11.9-44-33.5-82.9-62.2-112.6&#10;&#9;&#9;&#9;c-30-30.9-65.1-48.9-101.5-52c-44.1-3.7-82,13.7-104,47.6c-10.1,15.6-16,33.7-16.9,52.3c-1,19.1,3.3,38,12.4,54.4&#10;&#9;&#9;&#9;c17.5,31.7,44.6,51.1,74.4,53.4c27.7,2.1,54.4-10.7,73.1-35.1c5.5-7.2,4.2-17.5-3-23s-17.5-4.2-23,3&#10;&#9;&#9;&#9;c-11.9,15.5-28.1,23.6-44.6,22.4c-18.8-1.4-35.9-14.4-48.1-36.5c-12.3-22.3-11-51,3.3-73.1c15.2-23.5,42.1-35.4,73.7-32.8&#10;&#9;&#9;&#9;c58.2,4.9,113.7,62.6,134.8,140.4c30.8,113.2-15.6,226.4-124.1,303c-1.5,1.1-2.8,2.4-3.8,3.8c-96.7,65.9-210.9,81.5-297.6,81.5&#10;&#9;&#9;&#9;c-119.6,0-249.7-26.7-387.3-54.9c-101.1-20.7-205.6-42.2-310.7-53.7c-119.5-13.1-223.3-11.3-317.3,5.5&#10;&#9;&#9;&#9;c-87.2,15.7-158.1,46.7-204.8,89.8c-41.5,38.3-62.1,85-56.6,128.3c3.9,30.2,20.5,56.5,46.7,73.8c23,15.3,52.5,23.2,86,23.2&#10;&#9;&#9;&#9;c5.8,0,11.8-0.2,17.8-0.7c37-2.9,68.1-11,92.5-23.9c22.7-12,38.7-28.1,46.4-46.5c9-21.5,5.6-44.7-9-62.2&#10;&#9;&#9;&#9;c-21.3-25.4-61.1-34.5-106.6-24.3c-37.2,8.3-61.2,25.2-62.3,25.9c-7.4,5.2-9.2,15.5-3.9,22.9c5.2,7.4,15.4,9.2,22.8,3.9&#10;&#9;&#9;&#9;c0.2-0.1,20.1-13.9,50.5-20.7c39.2-8.8,64,1.1,74.2,13.3c6.8,8.1,8.2,18.3,3.9,28.5c-8.7,20.8-42.5,44.9-111.2,50.4&#10;&#9;&#9;&#9;c-64.1,5.1-109.4-21.5-115.4-67.8c-8.7-67.8,69.1-151.9,234.7-181.6c203.5-36.5,413,6.5,615.7,48&#10;&#9;&#9;&#9;c139.3,28.6,270.9,55.6,393.9,55.6c125.2,0,234.5-31.2,319.4-90.8c0.3-0.2,0.6-0.4,0.9-0.6c7.2-5.1,14.1-10.3,20.9-15.7&#10;&#9;&#9;&#9;c0,0,0.1-0.1,0.1-0.1c1.4-1.1,2.8-2.3,4.2-3.4c0.5-0.4,1.1-0.9,1.6-1.3c1-0.8,2-1.6,2.9-2.4c4.4-3.7,8.7-7.5,12.9-11.4&#10;&#9;&#9;&#9;c25.8-23.6,48.6-50.5,68.5-80.4c0.2-0.3,0.4-0.5,0.6-0.8c27.6-41.8,65.4-99.1,110.7-143.1c51.1-49.8,98.9-70.6,146-63.8&#10;&#9;&#9;&#9;c25.7,3.7,43.4,18.2,49.7,40.8c8.8,31.4-6.3,69-38.5,95.6c-12.3,10.1-42.5,31.8-58.9,13.8c-11.2-12.3-12.4-39.8,2.2-54.4&#10;&#9;&#9;&#9;c6.4-6.4,6.4-16.8,0-23.2c-6.4-6.4-16.8-6.4-23.2,0c-25.8,25.7-27.3,73.2-3.3,99.7c9.2,10.1,43.9,39.2,104-10.6&#10;&#9;&#9;&#9;c42.2-34.9,61.4-85.8,49.1-129.7c-4.7-16.7-13.9-31.4-26.6-42.4c-13.5-11.7-30.3-19.1-50-22c-31.1-4.5-62.9,0.7-94.3,15.4&#10;&#9;&#9;&#9;c-26.1,12.3-52.8,31.6-79.3,57.3c-8,7.8-15.7,15.9-23.2,24.2c2.6-8.8,5-17.8,7.2-26.9c0.1-0.4,0.2-0.8,0.3-1.2&#10;&#9;&#9;&#9;c4.4-18.8,8.7-37.2,12.8-54.9c26.8-116.5,48.8-212.2,92.8-260.1c28.4-28.2,65.9-23.4,107.6-61c43.8-39.5,70.5-113,32-211.8&#10;&#9;&#9;&#9;c-18.1,51.1-94.2,81-133.4,118.3c-59.2,56.2-17,113.7-28.7,130.6c-20.1,21.2-37,50.9-51.9,90.5c-3.2,8.5-6.3,17.3-9.2,26.5&#10;&#9;&#9;&#9;c-1.2-95-10.7-183.2-28.2-264.1c-3-17.8-6.1-35.5-9.3-53c-11.5-121.2,37.7-157.9,89.5-196.5c27.9-20.8,56.7-42.2,77.2-76.1&#10;&#9;&#9;&#9;c24.9-39.7,38.7,7.8,14.1,24c4.2,12.9,22.2,8.8,28-7.4c4.3-11.9,0.3-28.7-12.3-40.3c34.2,3.9,76.3,23.6,126.9,12.3&#10;&#9;&#9;&#9;C2301,878.4,2266.6,805.7,2266.6,805.7z" style="fill: rgb(51, 51, 51); opacity: 1;"/>
		<path class="st9" d="M2007.8,1410.5c-1.6-47.5,15.8-74.4,76.5-132c39.2-37.2,71.5-81.5,67.3-145.3c38.5,98.8,11.9,172.3-32,211.8&#10;&#9;&#9;&#9;C2075.8,1384.5,2036.6,1377.2,2007.8,1410.5" style="fill: rgb(51, 51, 51); opacity: 1;"/>
		<path class="st9" d="M1669.9,1320c-10.4-46.4-34-68-107.3-108.4c-47.3-26.1-89.7-60.9-101.8-123.6&#10;&#9;&#9;&#9;c-12.4,105.4,32,169.7,84.4,196.9C1597.5,1312,1633.6,1295,1669.9,1320" style="fill: rgb(51, 51, 51); opacity: 1;"/>
	</g></g><g transform="matrix(1.4258791208267214, 0, 0, 1.4258791208267214, -928.2601127208119, -544.1362556207685)"><g transform="matrix(1, 0, 0, 1, 0, 0)">
	<g>
		<path class="st5" d="M909.8,527c-1.9-4.5-4.1-8.8-6.5-13c-2.4-4.2-5.1-8.2-8.1-12.1c-3-3.8-6.2-7.5-9.7-10.9&#10;&#9;&#9;&#9;c-3.5-3.3-7.3-6.5-11.4-9.3c-4-2.7-8.2-5.2-12.6-7.3c-4.4-2.1-8.9-4-13.6-5.4c-4.7-1.4-9.4-2.7-14.2-3.4l-1.8-0.3l-1.8-0.2&#10;&#9;&#9;&#9;c-1.2-0.1-2.4-0.3-3.6-0.4c-2.4-0.2-4.8-0.4-7.3-0.4c-10-0.3-20.1,0.8-29.9,3.3c-9.7,2.6-19.1,6.6-27.7,11.9&#10;&#9;&#9;&#9;c-8.6,5.3-16.3,12-22.8,19.7c-3.3,3.8-6.3,7.9-9,12.1c-2.7,4.2-5.1,8.7-7.2,13.2c-8.4,18.2-11.7,39-8.6,59c0.8,5,2,9.9,3.5,14.8&#10;&#9;&#9;&#9;c1.5,4.8,3.5,9.5,5.7,14.1c2.2,4.5,4.8,8.9,7.7,13.1c2.9,4.2,6.1,8.1,9.4,11.8c13.7,14.9,31.9,25.5,51.5,30.2&#10;&#9;&#9;&#9;c9.8,2.4,20,3.4,30.1,3c5.1-0.2,10.1-0.8,15.1-1.8c5-1,9.9-2.4,14.6-4.1c21.1-7.8,39.1-22.7,51-41.5c5.2-8,9.3-16.9,12-26.1&#10;&#9;&#9;&#9;c1.4-4.6,2.3-9.3,3-13.9c0.1-1.2,0.2-2.3,0.4-3.5l0.2-1.7l0.1-1.7c0-1.2,0.1-2.3,0.1-3.5c0-1.2,0-2.3-0.1-3.5&#10;&#9;&#9;&#9;c0-1.6-0.5-0.7-0.4,0.8c0.1,4.4-0.3,8.9-0.9,13.4c-0.4,2.2-0.7,4.5-1.3,6.6c-0.3,1.1-0.5,2.2-0.8,3.3l-1,3.3&#10;&#9;&#9;&#9;c-1.4,4.3-3,8.6-5,12.6c-0.9,2.1-2,4-3.1,6c-0.5,1-1.1,2-1.7,2.9c-0.6,1-1.1,2-1.8,2.9c-5,8-11,15.3-18,21.7&#10;&#9;&#9;&#9;c-3.5,3.2-7.2,6.1-11,8.9c-3.9,2.6-8,5.1-12.2,7.2c-4.4,2.1-9,4.1-13.7,5.5c-4.7,1.4-9.5,2.7-14.4,3.4c-4.9,0.7-9.8,1.2-14.7,1.3&#10;&#9;&#9;&#9;l-1.8,0c-0.6,0-1.2,0-1.8,0l-3.7-0.1c-2.5-0.2-4.9-0.3-7.4-0.7c-4.9-0.6-9.7-1.6-14.5-2.9c-4.8-1.3-9.4-3-13.9-4.9&#10;&#9;&#9;&#9;c-4.5-1.9-8.9-4.3-13.1-6.9c-4.2-2.6-8.2-5.5-11.9-8.7c-15-12.8-26.2-30.1-31.6-49.1c-5.4-19-5.1-39.4,0.8-58.2&#10;&#9;&#9;&#9;c5.8-18.7,17.2-35.5,32.2-47.9c3.8-3.1,7.7-6,11.9-8.6c4.2-2.5,8.5-4.9,12.9-6.9c4.5-1.9,9.1-3.7,13.8-5c1.2-0.4,2.4-0.6,3.6-0.9&#10;&#9;&#9;&#9;c1.2-0.3,2.4-0.6,3.6-0.8l3.6-0.7l3.6-0.5c5.4-0.6,10.8-0.9,16.3-0.7c5.4,0.2,10.9,0.8,16.2,1.8c10.7,2.1,21.1,5.8,30.6,11.3&#10;&#9;&#9;&#9;c4.8,2.7,9.3,5.9,13.4,9.4c4.2,3.6,8,7.5,11.5,11.6c3.5,4.1,6.7,8.6,9.6,13.2c2.8,4.6,5.4,9.4,7.6,14.4&#10;&#9;&#9;&#9;C910.4,528.6,910.4,528.4,909.8,527z" style="fill: rgb(51, 51, 51); opacity: 1;"/>
	</g>
	<g>
		<path class="st5" d="M911.9,554.3c-0.1-1.9-0.5-3.8-0.8-5.8c-0.3-1.9-0.8-3.8-1.2-5.7c-1-3.8-2.1-7.5-3.6-11.2&#10;&#9;&#9;&#9;c-1.4-3.7-3.1-7.2-5-10.7c-1.9-3.4-3.9-6.8-6.3-10c-10.7-15.3-25.6-27.7-43.1-34.6c-2.2-0.9-4.4-1.6-6.6-2.4&#10;&#9;&#9;&#9;c-2.3-0.6-4.5-1.3-6.8-1.8c-2.3-0.6-4.6-0.9-6.9-1.3c-1.2-0.2-2.3-0.3-3.5-0.4l-1.8-0.2l-1.8-0.1c-4.7-0.4-9.4-0.3-14.1,0&#10;&#9;&#9;&#9;c-4.7,0.3-9.3,1-13.9,1.8c-4.6,0.9-9.1,2.1-13.5,3.6c-4.4,1.5-8.7,3.3-12.9,5.4c-4.2,2.1-8.2,4.5-12.1,7.2&#10;&#9;&#9;&#9;c-3.8,2.7-7.5,5.7-10.9,9c-3.4,3.4-6.6,7-9.5,10.9c-2.9,3.9-5.5,8-7.8,12.3c-2.3,4.3-4.2,8.7-5.9,13.3c-1.6,4.6-2.9,9.2-3.9,13.9&#10;&#9;&#9;&#9;c-1,4.7-1.6,9.5-1.9,14.3c-0.2,4.8-0.3,9.7,0.1,14.5c0.4,4.8,1.1,9.6,2.2,14.3c1.1,4.7,2.5,9.4,4.4,13.9c1.9,4.5,4,8.9,6.6,13&#10;&#9;&#9;&#9;c2.6,4.1,5.4,8.1,8.5,11.8c3.1,3.7,6.5,7.2,10.1,10.4c3.6,3.2,7.5,6.2,11.5,8.9c4,2.7,8.2,5.1,12.6,7.3c4.3,2.1,8.9,3.9,13.5,5.4&#10;&#9;&#9;&#9;c4.6,1.5,9.4,2.6,14.1,3.4c4.8,0.8,9.7,1.1,14.5,1.2c21.9,0.1,43.9-7.3,61.1-21c17.3-13.5,29.6-33.1,34.7-54.3&#10;&#9;&#9;&#9;c0.3-1.5,0-1.5-0.3,0c-2.3,9.3-6,18.2-11,26.3c-4.9,8.1-11.1,15.5-18.1,22c-3.5,3.2-7.2,6.2-11.1,8.9c-3.9,2.7-8,5.1-12.3,7.2&#10;&#9;&#9;&#9;c-4.3,2.1-8.7,3.9-13.2,5.4c-4.5,1.4-9.2,2.6-13.9,3.3c-18.8,2.9-38.4,0.3-55.6-7.6c-17.3-7.8-31.9-20.9-42-36.9&#10;&#9;&#9;&#9;c-1.3-1.9-2.4-4-3.6-6c-1.1-2.1-2.2-4.1-3.1-6.3c-1-2.1-1.8-4.3-2.7-6.5c-0.8-2.2-1.6-4.4-2.2-6.7c-0.7-2.2-1.2-4.5-1.8-6.8&#10;&#9;&#9;&#9;c-0.3-1.1-0.4-2.3-0.7-3.5l-0.3-1.7l-0.2-1.7c-0.7-4.6-0.9-9.3-0.9-14c0-4.7,0.5-9.3,1.2-14c0.8-4.6,1.9-9.2,3.3-13.6&#10;&#9;&#9;&#9;c1.5-4.4,3.2-8.8,5.2-13c2.1-4.2,4.4-8.2,7-12.1c10.4-15.5,25.4-27.9,42.6-35.1c17.1-7.3,36.2-9.7,54.7-6.6c2.5,0.4,5,1,7.5,1.6&#10;&#9;&#9;&#9;l3.7,1c1.2,0.3,2.4,0.8,3.7,1.2c4.8,1.7,9.6,3.7,14.1,6.2c9,4.9,17.2,11.2,24.2,18.7c6.8,7.1,12.5,15.5,16.9,24.5&#10;&#9;&#9;&#9;c2.1,4.5,3.9,9.2,5.3,14c1.4,4.7,2.3,9.6,2.8,14.4C911.4,555.7,912.1,556.5,911.9,554.3z" style="fill: rgb(51, 51, 51); opacity: 1;"/>
	</g>
	<g>
		<path class="st5" d="M806.4,474c-4.5,0.4-8.9,1.2-13.3,2.3c-4.4,1.1-8.7,2.5-12.9,4.3c-4.2,1.8-8.2,3.8-12.1,6.1&#10;&#9;&#9;&#9;c-3.9,2.3-7.6,4.9-11.1,7.7c-14.2,11.2-24.9,26.8-30.5,44.1c-5.7,17.2-6.2,36.1-1.6,53.7c4.6,17.6,14.1,34,27.8,46.3&#10;&#9;&#9;&#9;c13.5,12.2,30.7,20.7,48.8,23.4c18.1,2.8,37,0,53.5-7.5c16.6-7.5,30.5-20.1,40.2-35.2C905,604,910.6,586,910.6,568&#10;&#9;&#9;&#9;c0-1.2-0.3-1.1-0.3,0.1c0,17.9-5.3,35.9-15.2,51c-9.9,15.1-24.4,26.9-40.9,34c-16.4,7.3-34.9,9.3-52.6,6.5&#10;&#9;&#9;&#9;c-17.7-2.8-34.5-10.8-47.7-22.8c-13.4-12-23.1-28-27.6-45.3c-4.6-17.3-4-35.9,1.6-52.9c5.5-16.9,15.9-32.4,29.8-43.6&#10;&#9;&#9;&#9;c3.5-2.8,7.1-5.4,10.9-7.7c3.8-2.3,7.8-4.4,11.9-6.2c4.1-1.8,8.4-3.2,12.7-4.4c4.3-1.1,8.8-1.9,13.2-2.4&#10;&#9;&#9;&#9;C807.4,474.2,807.4,473.9,806.4,474z" style="fill: rgb(51, 51, 51); opacity: 1;"/>
	</g>
	<g>
		<path class="st5" d="M894,516.5c-2.8-4.8-6.6-9.5-10.9-13.8c-4.3-4.3-9.1-8-13.8-11.3c-5.6-3.9-11.4-7.5-17.6-10.3&#10;&#9;&#9;&#9;c-6.2-2.8-12.8-5-19.6-6.1c-0.3,0-0.2,0.7,0.1,0.7c12.6,2.2,24.1,7.3,34.6,14.3c10.2,6.9,18.5,15.4,25.2,25.6&#10;&#9;&#9;&#9;C892.8,517.2,894.9,518.1,894,516.5z" style="fill: rgb(51, 51, 51); opacity: 1;"/>
	</g>
	<g>
		<path class="st5" d="M904.5,566c0.2-7.1-0.7-14.5-2.8-21.6c-2.1-7.1-5.1-13.9-8.6-20.1c-8.1-14.5-20.4-26.6-35-34.6&#10;&#9;&#9;&#9;c-8-4.3-16.5-7.4-25.4-9c-4.4-0.9-8.9-1.3-13.5-1.4c-4.5-0.2-9,0.1-13.5,0.6c-1.1,0.2-2.2,0.2-3.4,0.4l-3.3,0.6&#10;&#9;&#9;&#9;c-2.2,0.5-4.4,0.9-6.6,1.5c-2.2,0.5-4.3,1.3-6.5,1.9l-3.2,1.2c-1.1,0.4-2.1,0.9-3.1,1.3c-8.3,3.5-16.1,8.4-22.9,14.4&#10;&#9;&#9;&#9;c-6.9,6.1-12.8,13.4-17.4,21.4c-2.3,4-4.3,8.2-6,12.5c-1.6,4.3-3,8.7-4,13.2c-4.1,18-2.2,37.3,5.1,54.2c1.8,4.3,3.9,8.4,6.3,12.3&#10;&#9;&#9;&#9;c0.6,1,1.2,2,1.8,2.9l1.9,2.9c1.4,1.9,2.7,3.7,4.2,5.5c5.9,7.2,13,13.4,21,18.3c8,4.8,16.7,8.5,25.8,10.6c1.1,0.2,2.3,0.6,3.4,0.8&#10;&#9;&#9;&#9;l3.5,0.6c2.3,0.3,4.6,0.7,7,0.8c2.3,0.2,4.7,0.2,7,0.3c2.3-0.1,4.7-0.1,7-0.3c7-0.6,13.9-2,20.4-4.4c6.6-2.3,12.8-5.4,18.8-9&#10;&#9;&#9;&#9;c11.8-7.4,21.6-17.6,28.8-29.3c1-1.4,1.8-3,2.6-4.5c0.8-1.5,1.6-3.1,2.4-4.6c1.5-3.1,2.9-6.3,4-9.6c2.3-6.5,4-13.4,4.6-20.3&#10;&#9;&#9;&#9;c0-0.5-0.4-0.5-0.4,0c-0.4,4.5-1.2,9-2.3,13.4c-1.1,4.4-2.6,8.7-4.4,12.9c-3.6,8.3-8.5,16.2-14.5,23c-3,3.4-6.2,6.7-9.6,9.7&#10;&#9;&#9;&#9;c-3.4,3-7.1,5.8-10.9,8.2c-3.9,2.4-7.9,4.6-12.1,6.5c-4.2,1.8-8.6,3.3-13,4.4c-8.8,2.2-17.9,2.9-26.9,2.3&#10;&#9;&#9;&#9;c-9-0.6-17.9-2.6-26.3-5.8c-16.8-6.5-31.2-18.4-41.1-33.2c-10.1-14.9-15.4-32.9-15-50.7c0.2-9,1.8-17.8,4.6-26.2&#10;&#9;&#9;&#9;c1.4-4.2,3.2-8.3,5.3-12.2c0.5-1,1-2,1.6-2.9l1.7-2.9c1.2-1.9,2.4-3.7,3.7-5.5c5.2-7.2,11.5-13.6,18.5-19&#10;&#9;&#9;&#9;c3.6-2.7,7.3-5.1,11.2-7.2c3.9-2.1,8-3.9,12.2-5.4c16.7-5.8,35.3-6.2,52.3-1.4c9.1,2.5,17.7,6.5,25.6,11.6&#10;&#9;&#9;&#9;c7.8,5.2,14.9,11.7,20.6,19.2c2.7,3.6,5.2,7.3,7.4,11.3c2.2,4,4,8.1,5.6,12.4c1.6,4.3,2.7,8.7,3.5,13.1c0.2,1.1,0.4,2.2,0.5,3.3&#10;&#9;&#9;&#9;c0.1,1.1,0.2,2.2,0.4,3.3c0.1,1.1,0.1,2.2,0.2,3.3c0.1,1.1,0.1,2.2,0.1,3.3C903.4,566.8,904.5,568.2,904.5,566z" style="fill: rgb(51, 51, 51); opacity: 1;"/>
	</g>
</g></g></svg>