<?xml version="1.0" standalone="no"?>
<!DOCTYPE svg PUBLIC "-//W3C//DTD SVG 20010904//EN"
 "http://www.w3.org/TR/2001/REC-SVG-20010904/DTD/svg10.dtd">
<svg version="1.0" xmlns="http://www.w3.org/2000/svg"
 width="300.000000pt" height="300.000000pt" viewBox="0 0 300.000000 300.000000"
 preserveAspectRatio="xMidYMid meet">
<metadata>
Created by potrace 1.10, written by Peter Selinger 2001-2011
</metadata>
<g transform="translate(0.000000,300.000000) scale(0.100000,-0.100000)"
fill="#000000" stroke="none">
<path d="M1513 2240 c-133 -28 -293 -171 -403 -361 -22 -37 -40 -70 -40 -73 0
-3 69 -6 154 -6 l154 0 52 155 c42 127 57 159 82 180 35 29 75 30 92 3 8 -14
-1 -51 -42 -172 -28 -85 -52 -157 -52 -160 0 -3 69 -6 154 -6 l155 0 7 46 c4
26 4 86 2 135 -7 111 -41 189 -103 232 -45 31 -138 43 -212 27z m183 -46 c72
-34 107 -129 102 -275 l-3 -84 -122 -3 c-76 -2 -123 1 -123 7 0 6 18 61 40
122 45 127 50 179 20 209 -24 24 -51 25 -90 5 -44 -23 -65 -61 -116 -208 l-46
-137 -119 0 c-66 0 -119 3 -119 6 0 10 35 69 43 72 4 2 7 10 7 18 0 8 4 14 9
14 5 0 12 8 15 18 6 17 149 172 159 172 3 0 27 13 54 30 95 58 209 72 289 34z"/>
<path d="M1154 1642 l-162 -2 -6 -31 -6 -30 -126 2 -126 1 -2 -51 -1 -51 111
0 111 0 -13 -62 c-19 -87 -18 -242 2 -307 21 -72 73 -127 137 -146 64 -19 95
-19 165 1 97 28 154 63 238 148 121 122 200 249 269 430 20 54 35 99 33 100
-2 0 -76 0 -165 -2 l-161 -3 -11 -29 c-10 -29 -12 -30 -75 -30 l-65 0 11 31
c6 16 9 31 7 32 -2 1 -77 1 -165 -1z m126 -50 c0 -32 22 -42 92 -42 66 0 70 1
86 30 l17 30 129 0 129 0 -6 -29 c-9 -46 -92 -216 -141 -291 -86 -130 -183
-223 -281 -270 -37 -18 -72 -25 -136 -28 -132 -6 -169 18 -213 142 -11 32 -8
221 5 284 18 86 11 92 -107 92 -87 0 -94 1 -94 20 0 19 7 20 107 20 85 0 110
3 125 17 10 9 18 22 18 30 0 10 29 13 135 13 123 0 135 -2 135 -18z"/>
<path d="M1252 1497 c-13 -15 -31 -60 -42 -102 -5 -16 -29 -89 -54 -162 -25
-73 -46 -141 -46 -152 0 -22 52 -81 72 -81 29 0 89 53 112 100 7 14 39 104 71
201 70 210 70 209 -35 209 -43 0 -71 -5 -78 -13z m82 -204 c-35 -104 -73 -199
-83 -213 -38 -52 -103 -51 -109 1 -2 19 38 146 123 387 3 8 26 12 69 12 l65 0
-65 -187z"/>
</g>
</svg>
